<svg xmlns="http://www.w3.org/2000/svg" viewBox="0 0 149 240.83"><defs><style>.cls-1,.cls-3{fill:#a7a9ac;}.cls-2{fill:#fff;}.cls-3{stroke:#a7a9ac;stroke-miterlimit:10;}</style></defs><title>Reurbanism Pin Grey</title><g id="Layer_2" data-name="Layer 2"><g id="Layer_1-2" data-name="Layer 1"><path class="cls-1" d="M75.31,240.83c7.37-9.19,52.12-88.33,69-129.91,4-9.82,4.23-26.73,4.45-29.76,0,0,.22-4.73.22-6.66a74.5,74.5,0,0,0-149,0C0,76.43.3,81,.3,81,.5,83.67,1.73,98,5.14,106.61c16.12,40.44,62,124,69.5,133.33Z"/><path class="cls-2" d="M32.5,126V25.83H117V126s-21.33,15-31.67,14.67V95.17H65.67V140S35,133.17,32.5,126Z"/><rect class="cls-3" x="44.83" y="37.83" width="13.67" height="20.5"/><rect class="cls-3" x="44" y="68.33" width="13.67" height="20.5"/><rect class="cls-3" x="44" y="95.67" width="13.67" height="20.5"/><rect class="cls-3" x="67.92" y="37.83" width="13.67" height="20.5"/><rect class="cls-3" x="67.67" y="68.33" width="13.67" height="20.5"/><rect class="cls-3" x="91" y="37.83" width="13.67" height="20.5"/><rect class="cls-3" x="91" y="68.33" width="13.67" height="20.5"/><rect class="cls-3" x="91" y="95.67" width="13.67" height="20.5"/></g></g></svg>